HIERARCHY
ROOT Hips
{
	OFFSET 0.000000 0.000000 0.000000
	CHANNELS 6 Xposition Yposition Zposition Xrotation Yrotation Zrotation
	JOINT LeftUpLeg_virtual
	{
		OFFSET 0.000000 0.000000 0.000000
		CHANNELS 3 Xrotation Yrotation Zrotation
		JOINT LeftUpLeg
		{
			OFFSET 15.427100 -6.655098 0.678600
			CHANNELS 3 Xrotation Yrotation Zrotation
			JOINT LeftLeg
			{
				OFFSET 4.081073 -39.591068 13.024000
				CHANNELS 3 Xrotation Yrotation Zrotation
				JOINT LeftFoot
				{
					OFFSET -4.081074 -37.707932 -15.979700
					CHANNELS 3 Xrotation Yrotation Zrotation
					JOINT LeftToeBase
					{
						OFFSET 5.346399 -15.068900 20.645000
						CHANNELS 3 Xrotation Yrotation Zrotation
						JOINT LeftToe_End
						{
							OFFSET 2.754700 0.931300 11.300900
							CHANNELS 3 Xrotation Yrotation Zrotation
							End Site
							{
								OFFSET 0 0 0
							}
						}
					}
				}
			}
		}
	}
	JOINT RightUpLeg_virtual
	{
		OFFSET 0.000000 0.000000 0.000000
		CHANNELS 3 Xrotation Yrotation Zrotation
		JOINT RightUpLeg
		{
			OFFSET -15.569500 -6.655098 0.678600
			CHANNELS 3 Xrotation Yrotation Zrotation
			JOINT RightLeg
			{
				OFFSET -4.081825 -39.591045 13.023800
				CHANNELS 3 Xrotation Yrotation Zrotation
				JOINT RightFoot
				{
					OFFSET 4.081824 -37.707954 -15.979600
					CHANNELS 3 Xrotation Yrotation Zrotation
					JOINT RightToeBase
					{
						OFFSET -5.346400 -15.068900 20.645000
						CHANNELS 3 Xrotation Yrotation Zrotation
						JOINT RightToe_End
						{
							OFFSET -2.754700 0.931300 11.300900
							CHANNELS 3 Xrotation Yrotation Zrotation
							End Site
							{
								OFFSET 0 0 0
							}
						}
					}
				}
			}
		}
	}
	JOINT Spine_virtual
	{
		OFFSET 0.000000 0.000000 0.000000
		CHANNELS 3 Xrotation Yrotation Zrotation
		JOINT Spine
		{
			OFFSET -0.279200 12.230698 -2.892100
			CHANNELS 3 Xrotation Yrotation Zrotation
			JOINT Spine1
			{
				OFFSET -0.232667 10.192268 -1.242267
				CHANNELS 3 Xrotation Yrotation Zrotation
				JOINT Spine1_split
				{
					OFFSET -0.232667 10.192268 -1.242267
					CHANNELS 3 Xrotation Yrotation Zrotation
					JOINT Spine2
					{
						OFFSET -0.232667 10.192268 -1.242267
						CHANNELS 3 Xrotation Yrotation Zrotation
						JOINT Neck_virtual
						{
							OFFSET 0.000000 0.000000 0.000000
							CHANNELS 3 Xrotation Yrotation Zrotation
							JOINT Neck
							{
								OFFSET -0.418800 17.814194 8.416900
								CHANNELS 3 Xrotation Yrotation Zrotation
								JOINT Head
								{
									OFFSET 0.000000 7.031097 3.806800
									CHANNELS 3 Xrotation Yrotation Zrotation
									JOINT HeadTop_End
									{
										OFFSET 0.000000 24.646606 12.978600
										CHANNELS 3 Xrotation Yrotation Zrotation
										End Site
										{
											OFFSET 0 0 0
										}
									}
								}
							}
						}
						JOINT LeftShoulder_virtual
						{
							OFFSET 0.000000 0.000000 0.000000
							CHANNELS 3 Xrotation Yrotation Zrotation
							JOINT LeftShoulder
							{
								OFFSET 8.476499 7.247704 -3.868750
								CHANNELS 3 Xrotation Yrotation Zrotation
								JOINT LeftShoulder_split
								{
									OFFSET 8.476499 7.247704 -3.868750
									CHANNELS 3 Xrotation Yrotation Zrotation
									JOINT LeftArm
									{
										OFFSET 9.308998 -2.777710 0.208600
										CHANNELS 3 Xrotation Yrotation Zrotation
										JOINT LeftForeArm
										{
											OFFSET 29.972298 0.000000 0.000000
											CHANNELS 3 Xrotation Yrotation Zrotation
											JOINT LeftHand
											{
												OFFSET 26.026505 0.000000 0.000000
												CHANNELS 3 Xrotation Yrotation Zrotation
												End Site
												{
													OFFSET 0 0 0
												}
											}
										}
									}
								}
							}
						}
						JOINT RightShoulder_virtual
						{
							OFFSET 0.000000 0.000000 0.000000
							CHANNELS 3 Xrotation Yrotation Zrotation
							JOINT RightShoulder
							{
								OFFSET -7.570500 7.247704 -3.868750
								CHANNELS 3 Xrotation Yrotation Zrotation
								JOINT RightShoulder_split
								{
									OFFSET -7.570500 7.247704 -3.868750
									CHANNELS 3 Xrotation Yrotation Zrotation
									JOINT RightArm
									{
										OFFSET -9.308998 -2.777710 0.208500
										CHANNELS 3 Xrotation Yrotation Zrotation
										JOINT RightForeArm
										{
											OFFSET -29.972300 0.000000 0.000000
											CHANNELS 3 Xrotation Yrotation Zrotation
											JOINT RightHand
											{
												OFFSET -26.026505 0.000000 0.000000
												CHANNELS 3 Xrotation Yrotation Zrotation
												End Site
												{
													OFFSET 0 0 0
												}
											}
										}
									}
								}
							}
						}
					}
				}
			}
		}
	}
}
MOTION
Frames: 7
Frame Time: 0.03333333
-1.045905 79.809273 -0.884377 0.000000 0.000000 0.000000 3.159472 -62.387016 5.803859 -31.322807 8.651725 28.284486 37.765069 -6.665325 -11.355292 -9.622856 -2.633672 -8.228965 1.365400 1.472752 0.573056 0.000000 0.000000 0.000000 1.929150 -60.509520 5.527296 -24.985098 -9.081391 -29.789689 37.782366 2.784540 -8.192639 -19.237873 2.644048 21.438777 3.533962 -0.508023 -0.531347 0.000000 0.000000 0.000000 1.717300 -61.074507 4.555516 10.650452 1.305709 -2.134091 9.084782 -0.082512 -5.790903 0.734615 -2.710897 1.419964 0.000000 0.000000 0.000000 10.138764 0.298033 -5.819256 -18.734543 20.904462 10.195463 4.781260 29.868250 -5.618646 0.000000 0.000000 0.000000 11.143575 -0.218395 -5.495902 -6.308122 -10.987433 -4.780285 0.451127 -0.298212 -3.561883 -19.739226 8.121378 -33.974003 2.604521 -46.753833 2.266558 0.000000 0.000000 0.000000 10.178509 -0.019202 -5.396100 -4.742053 10.812181 3.811252 4.621714 2.234916 -0.461034 -35.072209 -21.009168 36.491409 -155.766330 63.071422 153.943462 0.000000 0.000000 0.000000 
-0.975678 79.801636 -0.482937 0.000000 0.000000 0.000000 3.007507 -62.438611 5.757073 -31.293157 8.846665 28.142019 37.833094 -6.539873 -11.399801 -9.723333 -2.540385 -8.084011 1.315802 1.446207 0.625163 0.000000 0.000000 0.000000 1.847464 -60.577638 5.522093 -24.860492 -8.898864 -30.041805 37.845603 2.858734 -8.109844 -19.315859 2.585631 21.344859 3.490538 -0.477675 -0.540279 0.000000 0.000000 0.000000 1.770409 -61.130931 4.624520 10.681298 1.371533 -2.165196 9.130507 -0.034985 -5.761087 0.742784 -2.832829 1.438208 0.000000 0.000000 0.000000 10.162149 0.330171 -5.837161 -18.603969 20.759289 10.306045 4.666700 29.816702 -5.618909 0.000000 0.000000 0.000000 11.176780 -0.203534 -5.464767 -6.337100 -11.148074 -4.777729 0.370066 -0.440077 -3.534630 -19.944050 8.021450 -34.004462 2.430546 -46.633369 2.305263 0.000000 0.000000 0.000000 10.072789 -0.014925 -5.374118 -4.765058 10.807641 3.798449 4.942539 2.163475 -0.477232 -34.968998 -21.108799 36.741442 -155.723464 62.823397 153.722505 0.000000 0.000000 0.000000 
-0.768962 79.823181 0.056515 0.000000 0.000000 0.000000 2.886938 -62.394734 5.728618 -31.244075 9.042894 27.842025 38.124606 -6.502346 -11.429767 -10.021615 -2.550061 -7.751443 1.211343 1.411811 0.719209 0.000000 0.000000 0.000000 1.760559 -60.524109 5.495312 -24.530922 -8.855668 -30.550644 37.619545 3.051716 -8.009190 -19.251332 2.528428 21.525935 3.483390 -0.461543 -0.519764 0.000000 0.000000 0.000000 1.840056 -61.137597 4.731675 10.675130 1.506644 -2.179650 9.171703 0.016755 -5.712434 0.755796 -2.851242 1.405014 0.000000 0.000000 0.000000 10.166713 0.365422 -5.834050 -18.501985 20.450934 10.419581 4.571788 29.617934 -5.862023 0.000000 0.000000 0.000000 11.160279 -0.199093 -5.418607 -6.381561 -11.332262 -4.871683 0.225905 -0.490461 -3.578613 -20.423572 7.665100 -33.938899 2.445202 -46.133731 2.618271 0.000000 0.000000 0.000000 9.949010 -0.009424 -5.333529 -4.816244 10.818086 3.964305 5.042319 2.077302 -0.454235 -34.634516 -21.396565 37.130455 -155.980511 63.044763 153.444284 0.000000 0.000000 0.000000 
-0.448478 79.859146 0.676170 0.000000 0.000000 0.000000 2.827133 -62.295000 5.738576 -31.216871 9.223247 27.399876 38.604909 -6.530578 -11.454675 -10.485854 -2.664721 -7.262367 1.140379 1.372234 0.845254 0.000000 0.000000 0.000000 1.697611 -60.395784 5.464689 -24.074667 -8.939038 -31.268859 37.117922 3.335804 -7.866973 -19.039028 2.465403 21.940999 3.511185 -0.456016 -0.482751 0.000000 0.000000 0.000000 1.913849 -61.097565 4.839846 10.637134 1.685515 -2.175217 9.207431 0.064092 -5.643016 0.778288 -2.822141 1.284549 0.000000 0.000000 0.000000 10.155667 0.394044 -5.801593 -18.434086 19.945597 10.553893 4.506197 29.247126 -6.332558 0.000000 0.000000 0.000000 11.099117 -0.206007 -5.349053 -6.441169 -11.510404 -5.040769 -0.035348 -0.409130 -3.625881 -21.044329 7.125107 -33.793146 2.618430 -45.415403 3.174478 0.000000 0.000000 0.000000 9.813977 -0.010185 -5.271749 -4.895034 10.843878 4.268169 4.931786 1.989998 -0.392605 -34.259006 -21.803740 37.573407 -156.440715 63.763723 153.016318 0.000000 0.000000 0.000000 
-0.048825 79.909119 1.408543 0.000000 0.000000 0.000000 2.832166 -62.179672 5.788936 -31.198849 9.394235 26.806563 39.172282 -6.562147 -11.481189 -11.070410 -2.848907 -6.629536 1.134842 1.333811 0.991257 0.000000 0.000000 0.000000 1.662536 -60.263053 5.448886 -23.566499 -9.112982 -32.127219 36.351653 3.690517 -7.670171 -18.689868 2.397183 22.545899 3.523001 -0.459318 -0.445217 0.000000 0.000000 0.000000 2.012563 -61.015214 4.935215 10.567535 1.871933 -2.151325 9.235427 0.096792 -5.549743 0.804420 -2.731776 1.159671 0.000000 0.000000 0.000000 10.137454 0.405806 -5.737071 -18.389238 19.206991 10.726962 4.468930 28.692532 -7.023724 0.000000 0.000000 0.000000 11.000972 -0.223398 -5.248405 -6.517766 -11.675234 -5.280024 -0.334848 -0.204499 -3.646655 -21.672899 6.479794 -33.599606 2.854903 -44.716945 3.896025 0.000000 0.000000 0.000000 9.673280 -0.022410 -5.189260 -4.994818 10.881909 4.670374 4.682952 1.894557 -0.235416 -34.015134 -22.206892 37.951103 -156.957638 64.980138 152.302700 0.000000 0.000000 0.000000 
0.376253 79.998238 2.284321 0.000000 0.000000 0.000000 2.907446 -62.088872 5.878225 -31.140694 9.570806 26.078608 39.709043 -6.538891 -11.514019 -11.738033 -3.044248 -5.883768 1.186819 1.302768 1.139573 0.000000 0.000000 0.000000 1.649427 -60.182682 5.448357 -23.054619 -9.342539 -33.062501 35.358493 4.094254 -7.407080 -18.185985 2.330036 23.305282 3.452235 -0.470912 -0.417537 0.000000 0.000000 0.000000 2.152391 -60.937718 5.017390 10.463244 2.031455 -2.108855 9.254843 0.105016 -5.436772 0.864439 -2.615114 1.047927 0.000000 0.000000 0.000000 10.113412 0.395672 -5.648570 -18.352867 18.208741 10.938584 4.424285 27.899366 -7.884219 0.000000 0.000000 0.000000 10.874224 -0.247784 -5.118932 -6.609630 -11.827309 -5.589692 -0.621900 -0.025837 -3.646323 -22.155465 5.889305 -33.376368 3.103702 -44.298869 4.739335 0.000000 0.000000 0.000000 9.532755 -0.048371 -5.094885 -5.121740 10.909656 5.155535 4.406147 1.919055 -0.096111 -34.052608 -22.499174 38.132256 -157.266089 66.697385 151.076927 0.000000 0.000000 0.000000 
0.805352 80.134850 3.328247 0.000000 0.000000 0.000000 3.042542 -62.063941 5.986660 -30.979692 9.771657 25.238876 40.117943 -6.406225 -11.548930 -12.458061 -3.195443 -5.023916 1.242363 1.280529 1.279990 0.000000 0.000000 0.000000 1.717910 -60.161467 5.496457 -22.526532 -9.610317 -34.024167 34.148395 4.526686 -7.066748 -17.518920 2.288747 24.167105 3.331292 -0.490541 -0.405591 0.000000 0.000000 0.000000 2.344202 -60.883364 5.089761 10.329753 2.144660 -2.050796 9.262588 0.099932 -5.316437 0.959444 -2.451067 0.947154 0.000000 0.000000 0.000000 10.069973 0.375126 -5.553825 -18.298360 16.922588 11.169526 4.361471 26.787696 -8.861637 0.000000 0.000000 0.000000 10.730858 -0.270658 -4.980367 -6.711603 -11.961861 -5.975706 -0.907077 0.004659 -3.633452 -22.442255 5.496795 -33.151358 3.332426 -44.312078 5.674025 0.000000 0.000000 0.000000 9.395558 -0.078622 -5.004009 -5.271459 10.939900 5.751885 4.201508 2.095983 0.020030 -34.367162 -22.645405 38.072420 -157.028522 68.871051 149.086842 0.000000 0.000000 0.000000 
